<svg width="117" height="44" viewBox="0 0 117 44" fill="none" xmlns="http://www.w3.org/2000/svg">
<path d="M114.506 44H1.61075C0.713626 44 0 43.2864 0 42.3892V1.61075C0 0.713623 0.713626 0 1.61075 0H114.486C115.383 0 116.096 0.713623 116.096 1.61075V42.3892C116.117 43.2864 115.383 44 114.506 44Z" fill="black"/>
<path d="M36.1297 29.5644C36.1297 29.9926 35.8239 30.5227 35.4569 30.7266L22.3466 38.291C21.9796 38.5153 21.3679 38.5153 21.0009 38.291L7.89064 30.7266C7.52363 30.5023 7.2178 29.9926 7.2178 29.5644V14.4152C7.2178 13.987 7.52363 13.4569 7.89064 13.253L21.0009 5.6886C21.3679 5.46432 21.9796 5.46432 22.3466 5.6886L35.4569 13.253C35.8239 13.4773 36.1297 13.987 36.1297 14.4152V29.5644Z" fill="white"/>
<path d="M108.919 15.5162H97.1752V18.3095H101.375V30.2984H104.699V18.3095H108.919V15.5162Z" fill="white"/>
<path d="M55.5811 15.5162H43.8369V18.3095H48.0575V30.2984H51.3809V18.3095H55.5811V15.5162Z" fill="white"/>
<path d="M89.57 15.0473C85.8795 15.0473 83.8202 17.4124 83.8202 20.8174V30.2984H87.1029V20.7359C87.1029 19.2475 87.9796 18.1057 89.6108 18.1057C91.2215 18.1057 92.0982 19.4513 92.0982 20.7359V30.2984H95.3809V20.8174C95.3809 17.4124 93.2604 15.0473 89.57 15.0473Z" fill="white"/>
<path d="M77.1529 15.5162V30.2984H80.456V15.5162H77.1529Z" fill="white"/>
<path d="M66.0204 21.3883L66.1427 22.0408L69.2215 30.2984H70.5672L74.7674 15.5162H71.5255L69.507 23.2845L69.405 24.1205L69.2419 23.2845L66.5505 15.5162H65.4903L62.8193 23.2845L62.6562 24.1205L62.5338 23.2845L60.5357 15.5162H57.2938L61.494 30.2984H62.8397L65.9184 22.0408L66.0204 21.3883Z" fill="white"/>
<path d="M28.4838 22.0408L25.0788 27.0565L23.3253 24.3652L25.3438 21.3475C25.7108 20.8174 26.5264 19.329 25.5885 17.3105C24.8341 15.6793 23.203 14.8842 21.7757 14.8842C20.3485 14.8842 18.7785 15.6182 17.9629 17.3105C17.025 19.2474 17.8406 20.7766 18.1872 21.2864C18.1872 21.2864 19.3086 22.9379 20.2465 24.3244L21.7757 26.5264L24.0593 30.013C24.0797 30.0334 24.4467 30.5839 25.0788 30.5839C25.6905 30.5839 26.0575 30.0334 26.1186 29.9722L31.481 22.0408H28.4838ZM21.7757 22.1631C21.7757 22.1631 20.8786 20.797 20.3077 19.8591C19.6756 18.8397 20.3892 17.3309 21.7757 17.3309C23.1826 17.3309 23.8758 18.8397 23.2437 19.8591C22.6728 20.8174 21.7757 22.1631 21.7757 22.1631Z" fill="url(#paint0_radial_3263_614)"/>
<path d="M18.4727 26.8934L15.1084 22.1835C15.1084 22.1835 14.2113 20.8174 13.6404 19.8795C13.0083 18.8601 13.722 17.3513 15.1084 17.3513C15.2919 17.3513 15.4551 17.3716 15.5978 17.4124L16.7804 15.2512C16.2298 15.0269 15.6589 14.9045 15.1084 14.9045C13.6812 14.9045 12.1112 15.6386 11.2956 17.3309C10.3577 19.2678 11.1733 20.797 11.5199 21.3068L17.392 30.013C17.4328 30.0945 17.8202 30.645 18.4319 30.645C19.0639 30.645 19.4106 30.1149 19.4717 30.0334L21.2456 27.342L19.7164 25.0992L18.4727 26.8934Z" fill="url(#paint1_radial_3263_614)"/>
<defs>
<radialGradient id="paint0_radial_3263_614" cx="0" cy="0" r="1" gradientUnits="userSpaceOnUse" gradientTransform="translate(25.9559 3.8768) scale(131.424 44.2703)">
<stop stop-color="#FFCC00"/>
<stop offset="0.0915684" stop-color="#FFC800"/>
<stop offset="0.1739" stop-color="#FFBD00"/>
<stop offset="0.2528" stop-color="#FFAB00"/>
<stop offset="0.3295" stop-color="#FF9100"/>
<stop offset="0.4046" stop-color="#FF7000"/>
<stop offset="0.4786" stop-color="#FF4700"/>
<stop offset="0.5503" stop-color="#FF1800"/>
<stop offset="0.5822" stop-color="#FF0000"/>
<stop offset="1" stop-color="#FF0000"/>
</radialGradient>
<radialGradient id="paint1_radial_3263_614" cx="0" cy="0" r="1" gradientUnits="userSpaceOnUse" gradientTransform="translate(11.1248 17.1762) scale(14.4838 14.4838)">
<stop stop-color="#00B4E6"/>
<stop offset="0.201" stop-color="#00B0E3"/>
<stop offset="0.3898" stop-color="#01A5DB"/>
<stop offset="0.5737" stop-color="#0292CD"/>
<stop offset="0.7546" stop-color="#0377BA"/>
<stop offset="0.9316" stop-color="#0455A1"/>
<stop offset="1" stop-color="#054696"/>
</radialGradient>
</defs>
</svg>
